<svg xmlns="http://www.w3.org/2000/svg" width="1000" height="730" viewBox="0 0 1000 730" font-family="Segoe UI, Arial, sans-serif">
<rect width="1000" height="730" fill="#ffffff"/>
<defs><marker id="a" markerWidth="9" markerHeight="9" refX="7" refY="3" orient="auto"><path d="M0,0 L7,3 L0,6 Z" fill="#5a6470"/></marker></defs>
<text x="500.0" y="32" text-anchor="middle" font-size="20" font-weight="700" fill="#222">Healthcare Management System - Database Schema</text>
<line x1="160" y1="300" x2="452" y2="186" stroke="#5a6470" stroke-width="1.6" marker-end="url(#a)"/>
<line x1="500" y1="300" x2="500" y2="186" stroke="#5a6470" stroke-width="1.6" marker-end="url(#a)"/>
<line x1="845" y1="300" x2="548" y2="186" stroke="#5a6470" stroke-width="1.6" marker-end="url(#a)"/>
<path d="M395,620 H30 V130 H400" fill="none" stroke="#5a6470" stroke-width="1.6" marker-end="url(#a)"/>
<text x="150" y="615" text-anchor="middle" font-size="10" fill="#5a6470">user_id</text>
<line x1="395" y1="360" x2="268" y2="360" stroke="#5a6470" stroke-width="1.6" marker-end="url(#a)"/>
<text x="332" y="352" text-anchor="middle" font-size="10" fill="#5a6470">appointment_id</text>
<line x1="735" y1="360" x2="608" y2="360" stroke="#5a6470" stroke-width="1.6" marker-end="url(#a)"/>
<text x="671" y="352" text-anchor="middle" font-size="10" fill="#5a6470">ehr_record_id</text>
<rect x="400" y="60" width="200" height="126" rx="7" fill="#eef0f2" stroke="#5a6470" stroke-width="1.6"/>
<text x="500.0" y="79" text-anchor="middle" font-size="13" font-weight="700" fill="#222">users</text>
<line x1="408" y1="86" x2="592" y2="86" stroke="#9aa3ad" stroke-width="1"/>
<text x="412" y="104" font-size="11.3" fill="#222" font-weight="700">id <tspan fill="#5a6470" font-size="9" font-weight="700">PK</tspan></text>
<text x="412" y="122" font-size="11.3" fill="#222">email</text>
<text x="412" y="140" font-size="11.3" fill="#222">password_hash</text>
<text x="412" y="158" font-size="11.3" fill="#222">role</text>
<text x="412" y="176" font-size="11.3" fill="#222">is_active</text>
<rect x="55" y="300" width="210" height="126" rx="7" fill="#eef0f2" stroke="#5a6470" stroke-width="1.6"/>
<text x="160.0" y="319" text-anchor="middle" font-size="13" font-weight="700" fill="#222">appointments</text>
<line x1="63" y1="326" x2="257" y2="326" stroke="#9aa3ad" stroke-width="1"/>
<text x="67" y="344" font-size="11.3" fill="#222" font-weight="700">id <tspan fill="#5a6470" font-size="9" font-weight="700">PK</tspan></text>
<text x="67" y="362" font-size="11.3" fill="#222">patient_id <tspan fill="#5a6470" font-size="9" font-weight="700">FK</tspan></text>
<text x="67" y="380" font-size="11.3" fill="#222">doctor_id <tspan fill="#5a6470" font-size="9" font-weight="700">FK</tspan></text>
<text x="67" y="398" font-size="11.3" fill="#222">appointment_date</text>
<text x="67" y="416" font-size="11.3" fill="#222">status</text>
<rect x="395" y="300" width="210" height="126" rx="7" fill="#eef0f2" stroke="#5a6470" stroke-width="1.6"/>
<text x="500.0" y="319" text-anchor="middle" font-size="13" font-weight="700" fill="#222">ehr_records</text>
<line x1="403" y1="326" x2="597" y2="326" stroke="#9aa3ad" stroke-width="1"/>
<text x="407" y="344" font-size="11.3" fill="#222" font-weight="700">id <tspan fill="#5a6470" font-size="9" font-weight="700">PK</tspan></text>
<text x="407" y="362" font-size="11.3" fill="#222">patient_id <tspan fill="#5a6470" font-size="9" font-weight="700">FK</tspan></text>
<text x="407" y="380" font-size="11.3" fill="#222">doctor_id <tspan fill="#5a6470" font-size="9" font-weight="700">FK</tspan></text>
<text x="407" y="398" font-size="11.3" fill="#222">appointment_id <tspan fill="#5a6470" font-size="9" font-weight="700">FK</tspan></text>
<text x="407" y="416" font-size="11.3" fill="#222">diagnosis</text>
<rect x="735" y="300" width="220" height="144" rx="7" fill="#eef0f2" stroke="#5a6470" stroke-width="1.6"/>
<text x="845.0" y="319" text-anchor="middle" font-size="13" font-weight="700" fill="#222">prescriptions</text>
<line x1="743" y1="326" x2="947" y2="326" stroke="#9aa3ad" stroke-width="1"/>
<text x="747" y="344" font-size="11.3" fill="#222" font-weight="700">id <tspan fill="#5a6470" font-size="9" font-weight="700">PK</tspan></text>
<text x="747" y="362" font-size="11.3" fill="#222">patient_id <tspan fill="#5a6470" font-size="9" font-weight="700">FK</tspan></text>
<text x="747" y="380" font-size="11.3" fill="#222">doctor_id <tspan fill="#5a6470" font-size="9" font-weight="700">FK</tspan></text>
<text x="747" y="398" font-size="11.3" fill="#222">ehr_record_id <tspan fill="#5a6470" font-size="9" font-weight="700">FK</tspan></text>
<text x="747" y="416" font-size="11.3" fill="#222">medication_name</text>
<text x="747" y="434" font-size="11.3" fill="#222">status</text>
<rect x="395" y="560" width="210" height="126" rx="7" fill="#eef0f2" stroke="#5a6470" stroke-width="1.6"/>
<text x="500.0" y="579" text-anchor="middle" font-size="13" font-weight="700" fill="#222">audit_logs</text>
<line x1="403" y1="586" x2="597" y2="586" stroke="#9aa3ad" stroke-width="1"/>
<text x="407" y="604" font-size="11.3" fill="#222" font-weight="700">id <tspan fill="#5a6470" font-size="9" font-weight="700">PK</tspan></text>
<text x="407" y="622" font-size="11.3" fill="#222">user_id <tspan fill="#5a6470" font-size="9" font-weight="700">FK</tspan></text>
<text x="407" y="640" font-size="11.3" fill="#222">action</text>
<text x="407" y="658" font-size="11.3" fill="#222">resource_type</text>
<text x="407" y="676" font-size="11.3" fill="#222">timestamp</text>
<text x="976" y="710" text-anchor="end" font-size="10.5" fill="#5a6470">PK = primary key   FK = foreign key   arrows point to the referenced table</text>
</svg>
